# xmcd
#
# Track frame offsets: 
#        150
#        25524
#        49237
#
# Disc length: 1013 seconds
#
# Revision: 0
# Processed by: cddbd v1.5.2PL0 Copyright (c) Steve Scherf et al.
# Submitted via: ExactAudioCopyFreeDBPlugin 1.0
#
DISCID=1a03f303
DTITLE=Darklight / Demo
DYEAR=2006
DGENRE=Alt. Rock
TTITLE0=Brian(s)can
TTITLE1=All the things that you must love to do
TTITLE2=Third Wish
EXTD=
EXTT0=
EXTT1=
EXTT2=
PLAYORDER=
